<?xml version="1.0" encoding="utf-8"?>
<!-- Generator: Adobe Illustrator 24.2.3, SVG Export Plug-In . SVG Version: 6.00 Build 0)  -->
<svg width="50px" height="50px" version="1.0" id="Layer_1" xmlns="http://www.w3.org/2000/svg" xmlns:xlink="http://www.w3.org/1999/xlink" x="0px" y="0px"
	 viewBox="0 0 50 50" style="enable-background:new 0 0 50 50;" xml:space="preserve">
<style type="text/css">
	.st0{fill:#AFC80A;}
	.st1{fill-rule:evenodd;clip-rule:evenodd;fill:#AFC80A;}
</style>
<g id="github">
	<path class="st0" d="M24.8,11.5c-7.4,0-13.4,6-13.4,13.4c0,5.9,3.8,11,9.2,12.7c0.7,0.1,0.9-0.3,0.9-0.6c0-0.3,0-1.4,0-2.5
		c-3.7,0.8-4.5-1.6-4.5-1.6c-0.6-1.6-1.5-2-1.5-2c-1.2-0.8,0.1-0.8,0.1-0.8c1.3,0.1,2.1,1.4,2.1,1.4c1.2,2.1,3.1,1.5,3.9,1.1
		c0.1-0.9,0.5-1.5,0.9-1.8c-3-0.3-6.1-1.5-6.1-6.6c0-1.5,0.5-2.7,1.4-3.6c-0.1-0.3-0.6-1.7,0.1-3.6c0,0,1.1-0.4,3.7,1.4
		c1.1-0.3,2.2-0.4,3.4-0.5c1.1,0,2.3,0.2,3.4,0.5c2.6-1.7,3.7-1.4,3.7-1.4c0.7,1.9,0.3,3.2,0.1,3.6c0.9,0.9,1.4,2.1,1.4,3.6
		c0,5.2-3.1,6.3-6.1,6.6c0.5,0.4,0.9,1.2,0.9,2.5c0,1.8,0,3.2,0,3.7c0,0.4,0.2,0.8,0.9,0.6c5.3-1.8,9.2-6.8,9.2-12.7
		C38.2,17.6,32.2,11.5,24.8,11.5z"/>
</g>
<g id="Page-1">
	<g id="LinkedIn">
		<path id="Oval-1" class="st1" d="M25,50c13.8,0,25-11.2,25-25S38.8,0,25,0S0,11.2,0,25S11.2,50,25,50z M25,47c12.2,0,22-9.8,22-22
			S37.2,3,25,3S3,12.8,3,25S12.8,47,25,47z"/>
	</g>
</g>
</svg>
