<?xml version="1.0" encoding="utf-8"?>
<!-- Generator: Adobe Illustrator 24.2.3, SVG Export Plug-In . SVG Version: 6.00 Build 0)  -->
<svg  width="50px" height="50px" version="1.0" id="Ebene_1" xmlns:sketch="http://www.bohemiancoding.com/sketch/ns"
	 xmlns="http://www.w3.org/2000/svg" xmlns:xlink="http://www.w3.org/1999/xlink" x="0px" y="0px" viewBox="0 0 50 50"
	 style="enable-background:new 0 0 50 50;" xml:space="preserve">
<style type="text/css">
	.st0{fill-rule:evenodd;clip-rule:evenodd;fill:#AFC80A;}
</style>
<g id="Page-1">
	<g id="LinkedIn">
		<path id="Oval-1" class="st0" d="M25,50c13.8,0,25-11.2,25-25S38.8,0,25,0S0,11.2,0,25S11.2,50,25,50z M25,47c12.2,0,22-9.8,22-22
			S37.2,3,25,3S3,12.8,3,25S12.8,47,25,47z M14,20.1v14.5h4.7V20.1H14z M16.7,13c-1.6,0-2.7,1.1-2.7,2.5c0,1.4,1,2.5,2.6,2.5h0
			c1.6,0,2.7-1.1,2.7-2.5C19.3,14.1,18.3,13,16.7,13z M30.6,20.1c-2.5,0-3.6,1.4-4.2,2.4v-2.1h-4.7c0.1,1.4,0,14.5,0,14.5h4.7v-8.1
			c0-0.4,0-0.9,0.2-1.2c0.3-0.9,1.1-1.8,2.4-1.8c1.7,0,2.4,1.3,2.4,3.3V35H36l0-8.3C36,22.2,33.7,20.1,30.6,20.1z"/>
	</g>
</g>
</svg>
