<?xml version="1.0" encoding="utf-8"?>
<!-- Generator: Adobe Illustrator 24.2.3, SVG Export Plug-In . SVG Version: 6.00 Build 0)  -->
<svg  width="50px" height="50px" version="1.0" id="Ebene_1" xmlns:sketch="http://www.bohemiancoding.com/sketch/ns"
	 xmlns="http://www.w3.org/2000/svg" xmlns:xlink="http://www.w3.org/1999/xlink" x="0px" y="0px" viewBox="0 0 50 50"
	 style="enable-background:new 0 0 50 50;" xml:space="preserve">
<style type="text/css">
	.st0{fill-rule:evenodd;clip-rule:evenodd;fill:#AFC80A;}
</style>
<g id="Page-1">
	<g id="Twitter">
		<path id="Oval-1" class="st0" d="M25,50c13.8,0,25-11.2,25-25S38.8,0,25,0S0,11.2,0,25S11.2,50,25,50z M25,47c12.2,0,22-9.8,22-22
			S37.2,3,25,3S3,12.8,3,25S12.8,47,25,47z M24.7,20.6l0,0.8l-0.8-0.1c-2.9-0.4-5.4-1.7-7.6-3.9l-1-1.1L15,17.1
			c-0.6,1.8-0.2,3.7,1,5c0.6,0.7,0.5,0.8-0.6,0.4c-0.4-0.1-0.7-0.2-0.7-0.2c-0.1,0.1,0.3,1.6,0.6,2.2c0.4,0.8,1.3,1.7,2.2,2.1
			l0.8,0.4l-0.9,0c-0.9,0-0.9,0-0.8,0.4c0.3,1.1,1.6,2.2,3,2.8l1,0.4l-0.9,0.5c-1.3,0.8-2.8,1.2-4.3,1.2c-0.7,0-1.3,0.1-1.3,0.1
			c0,0.2,1.9,1.1,3.1,1.5c3.4,1.1,7.4,0.6,10.4-1.2c2.1-1.3,4.3-4,5.3-6.5c0.5-1.4,1.1-3.8,1.1-5c0-0.8,0-0.9,0.9-1.8
			c0.5-0.5,1-1.1,1.1-1.3c0.2-0.3,0.1-0.3-0.7,0c-1.4,0.5-1.5,0.4-0.9-0.3c0.5-0.5,1.1-1.5,1.1-1.8c0-0.1-0.2,0-0.5,0.2
			c-0.3,0.2-0.9,0.4-1.4,0.6l-0.9,0.3l-0.8-0.6c-0.4-0.3-1-0.6-1.4-0.7c-0.8-0.2-2.1-0.2-2.8,0.1C25.8,16.5,24.5,18.4,24.7,20.6
			C24.7,20.6,24.5,18.4,24.7,20.6z"/>
	</g>
</g>
</svg>
